# xmcd
#
# Track frame offsets:
#	150
#	18391
#	35749
#	54290
#	67924
#	84499
#	102053
#	121326
#	144350
#	157478
#	177042
#
# Disc length: 2521 seconds
# Revision: 0
# Processed by: cddbd v1.5.2PL0 Copyright (c) Steve Scherf et al.
# Submitted via: dBpowerAMP V12.0
#
DISCID=8a09d70b
DTITLE=Brad Hatfield - Uphill From Anywhere
DYEAR=2012
DGENRE=Blues
TTITLE0=Witness To My Misery
TTITLE1=Fit To Be The Fool
TTITLE2=One More Night
TTITLE3=She Got Time
TTITLE4=Somebody's Got To Lose
TTITLE5=End Of Time
TTITLE6=Livin' Out The Lie
TTITLE7=Death Letter
TTITLE8=Headstrong Baby
TTITLE9=Too Good To Give Away
TTITLE10=John The Revelator
EXTD=
EXTT0=
EXTT1=
EXTT2=
EXTT3=
EXTT4=
EXTT5=
EXTT6=
EXTT7=
EXTT8=
EXTT9=
EXTT10=
PLAYORDER=
